<svg xmlns="http://www.w3.org/2000/svg" viewBox="0 0 543.89004 226.32" id="svg55" width="543.89004" height="226.32"><defs id="defs4"><style id="style2">.cls-1{fill:#9e5125}.cls-2{fill:#f48537}.cls-3{fill:#f6bc93}.cls-4{fill:#201c1d}</style></defs><title id="title6">Asset 3</title><g id="Layer_2" data-name="Layer 2" transform="translate(.02)"><g id="Layer_1-2" data-name="Layer 1"><g id="KINESIS"><path d="M231.51 129.31h6.34v24.91h.15l17.79-24.91h7.06l-15.55 21.46 16.85 30h-7.06L243.17 156l-5.33 7.27v17.5h-6.34z" id="path8"/><path d="M269.31 129.31h6.34v51.41h-6.34z" id="path10"/><path d="M285.8 129.31h8.2l17 42.92h.14v-42.92h6.34v51.41h-8.71l-16.49-41.62h-.14v41.62h-6.34z" id="path12"/><path d="M327.63 129.31h26.57v5.62H334v16.13h19v5.62h-19v18.42h21.1v5.62h-27.47z" id="path14"/><path d="M384.58 142.63c0-5.4-1.94-9.14-8-9.14-5.33 0-8.5 2.88-8.5 8.35 0 14.47 24.27 5.83 24.27 24.63 0 11.88-8.71 15.27-16 15.27-12 0-15.55-6.19-15.55-17.14h6.34c0 5.76.36 12 9.65 12a8.66 8.66 0 0 0 8.93-9.07c0-14.55-24.27-6.12-24.27-25 0-4.75 2-14.19 15-14.19 9.79 0 14.26 4.9 14.4 14.33z" id="path16"/><path d="M400.56 129.31h6.34v51.41h-6.34z" id="path18"/><path d="M438.87 142.63c0-5.4-1.94-9.14-8-9.14-5.33 0-8.5 2.88-8.5 8.35 0 14.47 24.27 5.83 24.27 24.63 0 11.88-8.71 15.27-16 15.27-12 0-15.55-6.19-15.55-17.14h6.34c0 5.76.36 12 9.65 12a8.66 8.66 0 0 0 8.93-9.07c0-14.55-24.27-6.12-24.27-25 0-4.75 2-14.19 15-14.19 9.79 0 14.26 4.9 14.4 14.33z" id="path20"/></g><g id="KINESIS-2" data-name="KINESIS"><path class="cls-1" d="M0 46.85C31.36 31.12 62.86 15.65 94.27 0v113.2H0V46.85z" id="path23" fill="#9e5125"/><path class="cls-2" d="M94.27 0c6.36 3.07 12.65 6.3 19 9.44V113.2h-19q-.01-56.59 0-113.2z" id="path25" fill="#f48537"/><path class="cls-1" d="M113.26 41.39c5.42-1.58 10.88-3.05 16.3-4.64-.13 25.48 0 51 0 76.45h-16.3z" id="path27" fill="#9e5125"/><path class="cls-2" d="M129.56 36.75c4.91 1.87 9.79 3.83 14.7 5.7v70.75h-14.75c.03-25.49-.08-50.97.05-76.45z" id="path29" fill="#f48537"/><path class="cls-1" d="M156.67 60.35c7.45-1.38 14.91-2.73 22.35-4.16v57h-10.76V67.28c-3.76-1.16-7.54-2.21-11.34-3.21-.11-1.24-.18-2.48-.25-3.72z" id="path31" fill="#9e5125"/><path class="cls-2" d="M179 56.19c3.18 1.21 6.35 2.46 9.5 3.78v53.22H179v-57z" id="path33" fill="#f48537"/><path class="cls-1" d="M144.27 66.11c4.14-.73 8.32-1.27 12.46-2.08.06 16.39 0 32.78 0 49.17h-12.47q0-23.55.01-47.09z" id="path35" fill="#9e5125"/><path class="cls-2" d="M156.73 64l.16.05c3.8 1 7.58 2 11.34 3.21.07 15.31 0 30.61 0 45.91h-11.48c0-16.36.04-32.75-.02-49.17z" id="path37" fill="#f48537"/><path class="cls-3" d="M76.27 123.16c8-.17 16-1.05 24-.47q36 1.47 72.08 2.89c3.44.16 7-.09 10.27 1.11-1.93.34-3.85.73-5.8.95-27.6 2.7-55.19 5.55-82.8 8.19q-47-4.52-94-9.44c25.39-1.44 50.83-2.09 76.25-3.23z" id="path39" fill="#f6bc93"/><path class="cls-2" d="M182.62 126.69a52.88 52.88 0 0 1 5.64-.38v19.94c-11.17 2.77-22.36 5.48-33.53 8.3-20.24 4.9-40.45 10-60.69 14.87v-33.59c27.61-2.64 55.2-5.49 82.8-8.19 1.93-.22 3.85-.64 5.78-.95z" id="path41" fill="#f48537"/><path class="cls-1" d="M0 126.39q47 4.91 94 9.44v33.59c-20.32-4.82-40.55-10.05-60.87-14.93-11-2.81-22.11-5.44-33.15-8.24q.02-9.93.02-19.86z" id="path43" fill="#9e5125"/><path class="cls-3" d="M33.16 154.49c20.32 4.88 40.55 10.11 60.84 14.93 20.24-4.9 40.45-10 60.69-14.87 11.24 1.82 22.53 3.23 33.78 4.94-31.51 10.9-62.89 22.19-94.4 33.08C62.82 181.3 31.37 170.5 0 159.45c11.06-1.67 22.19-2.86 33.16-4.96z" id="path45" fill="#f6bc93"/><path class="cls-1" d="M0 159.45c31.36 11 62.81 21.85 94.09 33.12-.18 11.25 0 22.5-.09 33.75-31.37-15.53-62.66-31.21-94-46.77v-20.1z" id="path47" fill="#9e5125"/><path class="cls-2" d="M94.1 192.57c31.51-10.89 62.89-22.18 94.4-33.08v19.7c-31.42 15.86-63 31.3-94.49 47.13.07-11.25-.09-22.5.09-33.75z" id="path49" fill="#f48537"/></g><path id="Amazon" class="cls-4" d="M253.42 53.68c-9.24 0-19.45 3.58-21.68 15.28a1.65 1.65 0 0 0 1.25 2h.16l9.48 1.14a2.11 2.11 0 0 0 1.52-2 7.42 7.42 0 0 1 7.85-5.94 6.48 6.48 0 0 1 5.42 2.52 13 13 0 0 1 1.27 7.21v1.38a66.06 66.06 0 0 0-18.34 3.41A17 17 0 0 0 230 94.94c0 10.38 6.48 15.55 14.52 15.55a19 19 0 0 0 16.07-7.21 23.82 23.82 0 0 0 5.42 6.48 2 2 0 0 0 2.28-.27c2-1.79 5.42-5 7.45-6.69a1.92 1.92 0 0 0 0-2.71 13.71 13.71 0 0 1-3.66-9.21V75.81c0-6.48.54-12.65-4.17-17.21a21.68 21.68 0 0 0-14.49-4.92zm127.35 0c-9.24 0-19.45 3.58-21.68 15.28a1.65 1.65 0 0 0 1.25 2h.16l9.5 1.11a2.11 2.11 0 0 0 1.65-2 7.42 7.42 0 0 1 7.83-5.93 6.48 6.48 0 0 1 5.42 2.52 13 13 0 0 1 1.1 7.23v1.38a65.22 65.22 0 0 0-18.21 3.41 17 17 0 0 0-10.35 16.26c0 10.38 6.48 15.55 14.52 15.55a19 19 0 0 0 16.07-7.21 23.71 23.71 0 0 0 5.42 6.48 2 2 0 0 0 2.28-.27c2-1.79 5.42-5 7.45-6.69a2 2 0 0 0 0-2.71 13.71 13.71 0 0 1-3.66-9.21V75.81c0-6.48.43-12.65-4.28-17.21a21.41 21.41 0 0 0-14.47-4.93zm-71.64.51a13 13 0 0 0-12.79 9.43V57a1.92 1.92 0 0 0-1.79-1.79h-9a1.92 1.92 0 0 0-1.92 1.79v51.18a2 2 0 0 0 1.79 1.79h9.73a1.92 1.92 0 0 0 1.87-1.87V81c0-5.93-.3-14 6.69-14s5.93 8.35 5.93 14v27.1a2 2 0 0 0 1.79 1.87h9.73a1.92 1.92 0 0 0 1.87-1.87V81a31.11 31.11 0 0 1 .87-9.73 6.48 6.48 0 0 1 5.71-4.27 5.07 5.07 0 0 1 5.66 4.36 67.74 67.74 0 0 1 .27 9.73v27.1a2 2 0 0 0 1.79 1.87h9.73a1.92 1.92 0 0 0 1.87-1.87V75.65c0-5.42.54-11.73-2.52-16.07a14.17 14.17 0 0 0-24.39 4c-3-6.39-6.8-9.35-12.87-9.35zm165.47 0c-14 0-21.87 12.36-21.87 28.29S460.45 111 474.6 111c13.55 0 22.22-12.44 22.22-28.07 0-16.09-7.88-28.78-22.41-28.78zm55.49 0c-6.72 0-10.54 3.25-13.28 10.35v-7.8a1.87 1.87 0 0 0-1.81-1.38h-9a1.84 1.84 0 0 0-1.81 1.64v51.13A2 2 0 0 0 506 110h9.73a1.92 1.92 0 0 0 1.87-1.87V80.61a23.65 23.65 0 0 1 1.65-9.73 6.23 6.23 0 0 1 5.23-4.12c6.72 0 6.07 8.13 6.07 13.76v27.8a1.92 1.92 0 0 0 1.79 1.65H542a1.92 1.92 0 0 0 1.87-1.65V76.17c0-5 0-11.84-2.52-15.93A12.76 12.76 0 0 0 530 54.16zm-116.81.87a1.79 1.79 0 0 0-1.79 1.79v7.34a1.79 1.79 0 0 0 1.68 1.87h16.77L411 94.21a9.32 9.32 0 0 0-1.35 5v7.45a1.68 1.68 0 0 0 2.28 1.65 35.9 35.9 0 0 1 33.73 0 1.76 1.76 0 0 0 2.41-1.65V98.9a3.25 3.25 0 0 0-1.79-2.71A34.68 34.68 0 0 0 428 92.12l16.6-24.38a10.24 10.24 0 0 0 2.4-4.55V57a1.79 1.79 0 0 0-1.68-1.87h-32zm61.29 9.73a6.2 6.2 0 0 1 6.43 4.93 48.37 48.37 0 0 1 1.38 13.55c0 6.48-.33 17.42-7.83 17.42S467 87.14 467 81c0-6.14.33-16.26 7.37-16.26zm-216 18.56v2.14a20.1 20.1 0 0 1-1.79 10.57 7.86 7.86 0 0 1-6.69 4.55c-3.74 0-5.93-3-5.93-7.34-.11-8.4 7.45-9.89 14.44-9.89zm127.35 0v2.14a20.08 20.08 0 0 1-1.79 10.62 7.83 7.83 0 0 1-6.69 4.55c-3.74 0-5.93-3-5.93-7.34 0-8.48 7.37-10 14.36-10z" fill="#201c1d"/></g></g></svg>