<svg xmlns="http://www.w3.org/2000/svg" xmlns:xlink="http://www.w3.org/1999/xlink" viewBox="0 0 59 34" fill="#fff" fill-rule="evenodd" stroke="#000" stroke-linecap="round" stroke-linejoin="round" width="300" height="300" font-family="Roboto" font-size="14px" text-anchor="middle"><defs><style type="text/css"></style></defs><use xlink:href="#A" x=".5" y=".5"></use><symbol id="A" overflow="visible"><path d="M3.12 23.908L0 26.733s1.53 1.913 3.56 3.06 3.15 1.06 5.43 1.03c2.192 0 4.428-.413 6.223-2.002s2.134-2.025 2.126-4.028c-.004-.94-.253-3.016-1.4-4.358-1.287-1.517-3.48-2.252-3.48-2.252S5.743 16.5 6.434 14.167c.3-.978 1.84-1.348 3.364-1.08 1.928.34 3.878 1.5 3.878 1.5L16.4 11.92s-1.242-1.46-3.17-2.403c-1.428-.698-3.396-.956-4.657-.96-2.964-.01-6.67 2.636-7.113 5.374-.324 2 .326 3.7 1.795 4.973 1.854 1.618 3.173 1.83 3.173 1.83s5.914 1.523 5.914 3.363-1.436 2.517-3.73 2.546S3.1 23.907 3.1 23.907zM45.75 9.556l.047 4.284h2.448l.025 12.686s.424 1.46 1.53 2.542c1.428 1.398 2.92 1.755 2.92 1.755h4.802l.024-4.368-2.6-.024s-.565.024-1.2-.6c-.66-.636-.636-1.46-.636-1.46l.047-10.57h4.708l.024-4.284-4.708-.024-.047-8.286h-4.896l.047 8.333H45.75zm-9.848 1.022c-2.95-.65-5.944-.324-7.857.794l2.5-10.152L25.557 0l-7.092 28.587 4.944 1.427.682-2.8c1.452 2.746 3.106 4.068 6.278 4.787 5.885 1.334 11.138-2.77 12.555-9.102 1.216-5.434-2.492-11.32-7.023-12.32zm1.433 15.834l-7.098 1.954-5.294-5.362 1.805-7.316 7.1-1.954 5.302 5.362z" stroke="none" fill="#380d09" fill-rule="nonzero"></path></symbol></svg>