<svg xmlns="http://www.w3.org/2000/svg" xmlns:xlink="http://www.w3.org/1999/xlink" viewBox="0 0 113.25 47.25" fill="#fff" fill-rule="evenodd" stroke="#000" stroke-linecap="round" stroke-linejoin="round" width="300" height="300"><defs><style type="text/css"></style></defs><style>.B{fill:#dcd9d8}.C{fill-rule:nonzero}.D{stroke:none}.E{fill:#d33833}.F{fill:#231f20}.G{stroke:#d33833}.H{stroke-width:.366}</style><use xlink:href="#A" x=".625" y=".625"></use><symbol id="A" overflow="visible"><g class="D"><path d="M32.507 21.987c0 9.04-7.165 16.37-16.004 16.37S.5 31.027.5 21.987s7.165-16.37 16.004-16.37 16.004 7.33 16.004 16.37" class="E"></path><g class="C"><path d="M1.152 26.052S-.007 8.97 15.724 8.482l-1.1-1.83L6.09 9.518l-2.437 2.805-2.134 4.085-1.22 4.755.366 3.17" fill="#ef3d3a"></path><path d="M5.54 10.82C2.734 13.692.996 17.66.996 22.05s1.75 8.355 4.545 11.227 6.68 4.645 10.963 4.645 8.153-1.773 10.962-4.645 4.546-6.84 4.546-11.227-1.75-8.355-4.546-11.23a15.25 15.25 0 0 0-10.962-4.645c-4.28 0-8.15 1.773-10.963 4.645zM4.83 33.97C1.845 30.917 0 26.7 0 22.047s1.845-8.87 4.83-11.922S11.94 5.18 16.5 5.18s8.688 1.89 11.67 4.944 4.83 7.27 4.83 11.922-1.845 8.87-4.83 11.922-7.11 4.958-11.67 4.958-8.69-1.905-11.673-4.958" class="F"></path></g><path d="M23.24 22.078l-2.437.366-3.293.366-2.134.063-2.072-.062-1.585-.5-1.402-1.525-1.098-3.11-.244-.67-1.463-.5-.854-1.402-.6-2 .67-1.77 1.585-.55 1.28.6.6 1.34.73-.123.244-.305-.234-1.386-.062-1.77.366-2.437-.013-1.392 1.125-1.777 1.95-1.403L17.715.68l3.78.55 3.293 2.378 1.525 2.437.975 1.77.244 4.4-.73 3.78-1.34 3.354-1.28 1.77" fill="#f0d6b7"></path><path d="M21.167 32.625l-8.73.365v1.462l.73 5.12-.366.428-6.084-2.07-.428-.73-.6-6.875-1.403-4.146-.305-.975L8.85 21.85l1.525-.6 1.34 1.646 1.16 1.038 1.34.425.6.183.73 3.17.55.67 1.402-.5-.975 1.9 5.304 2.5-.67.366" fill="#335061"></path><path d="M6.717 11.348l1.585-.55 1.28.6.6 1.34.73-.122.183-.73-.366-1.402.366-3.354L10.8 5.3 11.9 4.03l2.377-1.9-.67-.915L10.25 2.87 8.85 3.97l-.793 1.707-1.22 1.646-.366 1.95.244 2.073" fill="#6d6b6d"></path><path d="M9.217 5.615s.915-2.256 4.573-3.354.182-.793.182-.793L10.01 2.994 8.484 4.52l-.67 1.22 1.402-.123m-1.83 5.305s-1.28-4.27 3.6-4.877l-.182-.73-3.367.8-.963 3.173.244 2.073.67-.425" class="B"></path><g fill="#f7e4cd"><path d="M9.34 16.6l.8-.775s.36.043.42.47.24 4.27 2.876 6.344c.25.188-1.95-.305-1.95-.305l-1.95-3.05m11.02-3.84s.143-1.848.64-1.706.497.64.497.64-1.21.782-1.125 1.066"></path><path d="M25.618 8.677s-1.005.213-1.098 1.098 1.098.182 1.28.123m-7.56-1.17S16.9 8.9 16.9 9.765s1.525.792 1.95.428" class="C"></path><path d="M9.936 12.677s-2.317-1.402-2.562-.062-.793 2.316.366 3.72l-.793-.244-.73-1.9-.244-1.83 1.402-1.463 1.585.123.915.73.063.915m1.11-3.843s1.038-5.365 6.28-6.4c4.316-.854 6.585.183 7.438 1.16 0 0-3.84-4.572-7.5-3.17s-6.328 3.974-6.277 5.62l.063 2.805M25.2 4.215s-1.768-.062-1.83 1.525a1.3 1.3 0 0 0 .121.5s1.402-1.585 2.256-.73m-8.303.88s-.304-2.434-2.38-1.02c-1.34.915-1.22 2.195-.975 2.438s.177.735.375.397.125-1.435.795-1.75 1.77-.645 2.196-.08"></path></g><path d="M11.717 22.87l-5.73 2.56s2.378 9.45 1.16 12.375l-.854-.305-.062-3.597-1.585-6.83-.67-1.9 5.975-4.025 1.767 1.706m.59 5.23l.813.992v3.658h-.975l-.12-2.865c0-.305.12-1.402.12-1.402m.182 4.816l-2.744.12.792.55 1.95.305" fill="#49728b"></path><g fill="#335061"><path d="M21.715 32.687l2.256-.062.55 5.61-2.316.305-.5-5.853"></path><path d="M22.31 32.686l3.413-.182 1.402-3.72c0-.182 1.22-5.12 1.22-5.12L25.602 20.8l-.55-.5L23.6 21.76v5.67l-1.28 5.255"></path></g><path d="M23.85 32.26l-2.134.425.305 1.708c.793.366 2.134-.6 2.134-.6M23.91 21.6l4.267 3.17.123-1.463-3.23-3-1.16 1.28" fill="#49728b"></path><path d="M14.44 44.697l-1.25-5.122-.628-3.78L12.436 33l5.712-.304h3.554l-.325 6.402.55 4.938-.062.915-4.634.366-2.805-.6"></path><path d="M20.936 32.624s-.305 6.34.6 10.853c0 0-1.83 1.16-4.5 1.462l5.12-.182.6-.366-.73-10-.183-2.134" class="B"></path><path d="M24.624 37.748l2.378-.67 4.5-.244.685-2.073-1.22-3.597-1.402-.183-1.95.6-1.87.912-.994-.182-.775.304"></path><path d="M24.58 36.528s1.585-.73 1.83-.67l-.67-3.354.793-.305.55 3.538 3.72.182s.73-1.402.55-2.865l.67 1.95.062 1.098-.975 1.462-1.097.244-1.83-.062-.6-.792-2.134.305-.67.244" class="B"></path><path d="M22.186 32.198l-1.34-3.413-1.402-2s.305-.854.73-.854h1.402l1.34.5-.12 2.256-.6 3.5" class="C"></path><path d="M22.446 31.052s-1.707-3.292-1.707-3.78c0 0 .305-.73.73-.55a25.03 25.03 0 0 1 1.341.67v-1.16l-2.073-.427-1.402.183 2.378 5.61.5.063" class="B"></path><path d="M15 22.994l-1.687-.184-1.585-.5v.55l.775.854 2.438 1.098" class="C"></path><path d="M12.265 23.177s1.9.793 2.5.6l.063.73-1.706-.365-1.037-.73.182-.244" class="B"></path><path d="M24.618 26.127c-1.035-.03-1.97-.154-2.788-.384.055-.335-.05-.665.035-.906.227-.162.6-.162.955-.2a1.66 1.66 0 0 0-1.061-.12c-.008-.232-.125-.377-.175-.56.58-.207 1.955-1.57 2.727-1.117.367.212.525 1.438.553 2.034.025.494-.045.992-.246 1.254" class="E"></path></g><path d="M24.618 26.127c-1.035-.03-1.97-.154-2.788-.384.055-.335-.05-.665.035-.906.227-.162.6-.162.955-.2a1.66 1.66 0 0 0-1.061-.12c-.008-.232-.125-.377-.175-.56.58-.207 1.955-1.57 2.727-1.117.367.212.525 1.438.553 2.034.025.494-.045.992-.246 1.254z" fill="none" class="G H"></path><path d="M19.67 24.436l-.01.25c-.323.213-.845.2-1.2.375.448.015.89.126 1.3.326l-.022.59c-.593.405-1.133 1.01-1.83 1.375-.33.18-1.5.643-1.837.56-.2-.046-.216-.293-.295-.525-.17-.497-.558-1.287-.592-2.037-.044-.945-.125-2.53.88-2.334.82.156 1.777.535 2.413.882.375.212.625.475 1.204.52" class="D E"></path><path d="M19.67 24.436l-.01.25c-.323.213-.845.2-1.2.375.448.015.89.126 1.3.326l-.022.59c-.593.405-1.133 1.01-1.83 1.375-.33.18-1.5.643-1.837.56-.2-.046-.216-.293-.295-.525-.17-.497-.558-1.287-.592-2.037-.044-.945-.125-2.53.88-2.334.82.156 1.777.535 2.413.882.375.212.625.475 1.204.52z" fill="none" class="G H"></path><path d="M20.258 25.552c-.1-.515-.195-.663-.154-1.1 1.372-.915 1.63 1.572.154 1.1" class="D E"></path><path d="M20.258 25.552c-.1-.515-.195-.663-.154-1.1 1.372-.915 1.63 1.572.154 1.1z" fill="none" class="G H"></path><g class="D"><path d="M22.246 25.98s-.427-.6-.122-.792.6 0 .793-.305 0-.5.063-.854.366-.428.67-.5 1.16-.182 1.28.123l-.366-1.098-.73-.244-2.316 1.34-.123.67v1.355m-5.55 2.33l-.25-2.852c-.13-1.42.34-1.17 1.57-1.17.188 0 1.157.225 1.225.366.332.68-.556.53.383 1.04.792.432 2.192-.25 1.872-1.225-.18-.212-.934-.066-1.205-.206l-1.43-.74c-.606-.315-2.006-.772-2.652-.334-1.625 1.125.104 3.895.688 5.056" fill="#ef3d3a"></path><path d="M17.437 6.4c-1.662-.375-2.5.695-2.99 1.817-.45-.11-.27-.72-.158-1.032.298-.818 1.496-1.906 2.475-1.76.42.063.99.45.672.975m8.1 1.892l.08.003c.375.78.7 1.606 1.175 2.295-.317.75-2.402 1.394-2.37.066.45-.198 1.23-.04 1.63-.293-.23-.635-.565-1.175-.5-2.072m-7.246.02c.356.654.473 1.34.98 1.833.227.222.67.492.45 1.125-.05.146-.428.47-.644.535-.79.234-2.625.05-2-.937.655.03 1.535.425 2.025-.05-.375-.6-1.046-1.8-.8-2.5m6.927 6.625c-1.192.766-2.52 1.6-4.475 1.405-.418-.375-.575-1.17-.17-1.704.213.375.08 1.03.666 1.13 1.11.2 2.4-.677 3.196-.98.495-.834-.043-1.14-.5-1.675-.913-1.1-2.135-2.463-2.1-4.106.37-.267.4.408.454.53.475 1.125 1.675 2.537 2.55 3.492.215.235.57.46.607.615.125.45-.295.992-.247 1.293m-15.708-.808c-.375-.212-.463-1.152-.9-1.18-.627-.037-.5 1.22-.5 1.954-.43-.39-.507-1.598-.2-2.218-.375-.177-.522.196-.723.328.258-1.87 2.75-.867 2.325 1.116m16.473 1.584c-.555 1.056-1.34 2.22-2.97 2.254-.032-.34-.06-.86.001-1.065 1.245-.12 2-.754 2.966-1.187m-7.8.684c1.038.546 2.948.605 4.36.563.075.31.075.69.075 1.07-1.815.1-3.96-.36-4.437-1.633m-.194 1.02c.72 1.804 3.187 1.596 5.27 1.546-.09.234-.3.5-.538.625-.667.27-2.507.477-3.432-.015-.587-.312-.965-1.017-1.288-1.43-.155-.2-.93-.7-.012-.712" class="F"></path><path d="M25.16 27.37l-2.65 4.2c.42-1.233.6-3.296.663-4.87.877-.4 1.627.093 2 .67" fill="#81b0c4"></path><path d="M29.697 32.56c-.944.188-1.606 1.106-2.527 1.047.506-.712 1.393-1 2.528-1.047m.415 1.475c-.77.08-1.672.206-2.453.14.37-.562 1.793-.37 2.453-.14m.268 1.275a28.75 28.75 0 0 1-2.76-.068c.5-.523 2.2-.194 2.76.068" class="F"></path><path d="M23.537 38.794c.125 1.085.555 2.185.5 3.375-.477.163-.752.303-1.392.3l-.14-3.52c.315.02.78-.225 1.032-.157" class="B"></path><path d="M22.142 22.795c-.434.284-.804.625-1.22.94-.925.046-1.43-.062-2.108-.595.012-.043.08-.025.082-.075 1 .44 2.247-.18 3.246-.27" fill="#f0d6b7"></path><path d="M16.946 29.553c.27-1.177 1.337-1.788 2.305-2.437 1 1.268 1.606 2.896 2.275 4.47-1.58-.475-3.194-1.25-4.58-2.032" fill="#81b0c4"></path><path d="M22.502 38.952c-.04.963.095 2.508.14 3.52.64.001.915-.14 1.393-.3.054-1.187-.375-2.288-.5-3.375-.252-.067-.718.18-1.033.157zm-9.97-5.48c.423 3.88 1.034 7.145 2.155 10.583 2.5.756 5.49.82 7.69.14-.404-1.94-.228-4.303-.463-6.372l-.33-4.7c-2.666-.555-6.435-.13-9.053.36zm9.683-.335c-.023 1.667.075 3.312.203 4.98l1.67-.29c-.194-1.607-.17-3.415-.563-4.837-.455.004-.855-.005-1.31.146zm3.247-.27c-.304-.07-.657-.002-.947.002l.584 4.285c.456.012.7-.2 1.075-.275.02-1.252-.1-2.977-.713-4.015zm4.918 4.493c.953-.23 1.55-1.398 1.284-2.595-.18-.805-.497-2.32-.837-2.835-.25-.38-.934-.88-1.48-.53-.875.567-2.448.733-3.094 1.42.325 1.08.425 2.562.56 3.93 1.107.07 2.47-.305 3.39.093-.643.21-1.478.2-2.033.5.454.22 1.516.175 2.2.006zm-8.855-5.8c-.67-1.572-1.275-3.202-2.275-4.47-.968.65-2.032 1.26-2.305 2.438 1.385.784 3 1.556 4.58 2.032zm1.65-4.87c-.062 1.572-.242 3.625-.663 4.87 1-1.275 1.806-2.756 2.65-4.2-.36-.575-1.1-1.08-2-.67zm-1.87-.663c-.38-.04-.7.435-1.193.23l-.33.38c1.087 1.313 1.583 3.17 2.423 4.713.45-1.48.4-3.1.5-4.716-.62.037-.962-.56-1.398-.606zm-1.2-1.587c-.04.45.063.596.154 1.1 1.475.462 1.22-2.025-.154-1.1zm-1.625-.538c-.625-.348-1.59-.725-2.413-.883-1.02-.195-.922 1.375-.88 2.334.034.748.423 1.538.593 2.038.08.232.098.48.295.525.35.08 1.508-.38 1.838-.56.697-.38 1.25-.984 1.83-1.375l.022-.59a3.11 3.11 0 0 0-1.29-.326c.355-.18.875-.175 1.2-.375l.01-.25c-.6-.045-.815-.308-1.204-.52zm-6.075-1.104c-.527.538 1.48 1.266 2.12 1.306-.004-.337.194-.66.154-.902-.76-.134-1.758-.045-2.275-.404zm6.503.25c-.003.052-.07.034-.083.075.68.53 1.184.64 2.107.595l1.22-.94c-1 .087-2.258.7-3.246.27zm5.97 1.8c-.03-.595-.185-1.82-.553-2.034-.773-.45-2.145.9-2.727 1.117.063.183.168.325.175.56a1.66 1.66 0 0 1 1.061.12c-.345.037-.727.037-.955.2-.084.24.02.57-.035.906.82.23 1.753.354 2.788.384.2-.25.27-.76.246-1.254zm-13.373-1.54c-.166-.12-1.287-1.577-1.44-1.516-2.03.8-3.925 2.184-5.62 3.492 1.616 3.47 2.27 7.718 2.37 11.814 1.875.866 3.49 2.115 6.004 2.245l-.72-5.83c-.63-.266-1.537.013-2.127-.083-.005-.712.902-.312.977-.8.058-.375-.5-.4-.32-.96.462.168.705.537 1.198.677.45-.985-.006-2.727.06-3.55.012-.155.078-.856.425-.732.306.11-.018 1.866.016 2.645.03.718-.087 1.412.204 1.875 2.428-.33 4.895-.544 7.523-.616-.578-.247-1.265-.483-2.018-.907-.407-.23-1.695-.71-1.812-1.096-.187-.617.493-.946.6-1.475-1.225.67-1.465-.64-1.755-1.57-.25-.84-.412-1.468-.475-1.953-1.056-.504-2.185-1-3.094-1.66zM23.79 22c1.7-.82 1.995 3.063 1.332 4.315.102.372.455.516.6.85l-2.954 4.937c.716-.446 1.75-.08 2.58-.412.308-.12.53-.828.75-1.39.64-1.553 1.315-3.51 1.615-5 .067-.338.252-1.073.212-1.372-.075-.538-.804-.937-1.175-1.27l-1.817-1.73c-.288.428-.9.713-1.146 1.063zM7.636 6.997c-.805.875-.625 2.548-.54 3.73 1.456-.916 3.375.073 3.37 1.63.695-.02.26-.87.134-1.416-.413-1.787.692-3.73.05-5.366-1.247.095-2.27.604-3.015 1.423zm5.75-5.144c-1.825.518-4.162 1.843-4.9 3.48.58-.084.983-.377 1.555-.412.216-.012.5.09.75.03.495-.123.912-1.234 1.287-1.648.365-.404.802-.575 1.102-.944.193-.092.478-.087.5-.375-.084-.088-.17-.158-.27-.13zm9.494.5c-1.892-1.067-5.096-1.87-7.1-.868-1.625.8-3.82 2.15-4.57 3.85.7 1.625-.207 3.14-.265 4.805-.03.885.418 1.66.45 2.622-.25.395-.97.444-1.475.416-.17-.852-.47-1.812-1.346-1.908-1.243-.125-2.15.893-2.208 1.968-.066 1.25.97 3.358 2.44 3.213.567-.056.707-.625 1.325-.62.335.67-.517.88-.605 1.358-.022.125.07.606.125.834.268 1.104.875 2.53 1.45 3.37.744 1.065 2.205 1.225 3.778 1.33.28-.605 1.315-.555 2-.398-.807-.32-1.56-1.095-2.18-1.78-.715-.787-1.437-1.633-1.475-2.662 1.35 1.875 2.466 3.5 4.925 4.335 1.86.625 4.03-.287 5.458-1.287.593-.416.946-1.08 1.367-1.684 1.575-2.267 2.313-5.502 2.15-8.64-.066-1.294-.062-2.582-.497-3.453-.454-.9-2-1.725-2.875-.9-.166-.885.746-1.432 1.82-1.125-.765-1-1.567-2.175-2.655-2.787zm3.525 29.185c1.48-.735 4.243-1.98 5.17.003.343.73.744 1.965.92 2.72.25 1.063-.27 3.3-1.365 3.657-.966.315-2.093.296-3.256.063-.163-.147-.297-.324-.396-.52-.83-.032-1.61.045-2.265.375.063.625-.354.713-.742.84-.288 1.145.578 2.64.37 3.685-.148.744-1.062.86-1.75.998-.023.412.03.76.075 1.11-.154.566-.844.9-1.498.97-2.15.26-5.416.375-7.485-.37-.577-1.416-1.032-3.125-1.5-4.755-2.017.215-3.65-.87-5.187-1.582-.533-.248-1.27-.383-1.47-.807-.193-.4-.125-1.198-.162-1.94-.12-1.898-.225-3.73-.728-5.672-.225-.872-.617-1.64-.89-2.48-.252-.78-.695-1.74-.8-2.518-.17-1.15.913-1.215 1.606-1.712 1.07-.77 1.913-1.197 3.072-1.894.344-.206 1.38-.727 1.498-.97.234-.475-.402-1.15-.573-1.52-.27-.6-.4-1.093-.45-1.675-.975-.154-1.713-.732-2.156-1.375-.75-1.08-1.25-3.08-.625-4.602.05-.12.3-.355.338-.54.072-.375-.125-.844-.15-1.23-.03-2 .373-3.694 1.7-4.3.54-2.152 2.475-2.87 4.296-3.937.68-.4 1.433-.655 2.208-.94 2.78-1.025 7.05-.83 9.357.915.98.74 2.544 2.304 3.104 3.435 1.48 3 1.375 7.983.337 11.616-.125.5-.34 1.205-.622 1.79-.196.41-.806 1.23-.733 1.6.075.375 1.39 1.37 1.673 1.644.508.5 1.47 1.14 1.55 1.758.084.658-.3 1.558-.48 2.19l-1.954 5.964" class="F"></path><path d="M16.552 16.867c.08-.106.52-.27 1.125.03 0 0-.73.123-.67 1.34l-.305-.062s-.315-1.106-.163-1.31" fill="#f7e4cd"></path><path d="M21.9 27.352c0 .185-.15.335-.335.335s-.335-.15-.335-.335.15-.335.335-.335.335.15.335.335m.335 1.554c0 .185-.15.335-.335.335s-.335-.15-.335-.335.15-.335.335-.335.335.15.335.335" fill="#1d1919"></path><path d="M36.516 31.308v-2.025h1.12q.05.8.38 1.2.337.38 1 .38.837 0 1.163-.646.337-.625.337-2.405V16.397h-1.87v-1.043h6.852v1.043h-1.646V27.87q0 2.095-1.06 3.06-1.05.965-3.352.965-.715 0-1.44-.146-.725-.146-1.475-.44zM53.23 23.05q0-1.8-.338-2.534-.337-.733-1.146-.733-.785 0-1.13.715-.337.715-.337 2.396v.155h2.948zm3.352 1.025h-6.3v.07q0 1.775.535 2.57.535.785 1.725.785 1 0 1.604-.525.625-.525.785-1.525h1.43q-.37 1.56-1.475 2.293-1.104.732-3.088.732-2.38 0-3.655-1.25-1.267-1.26-1.267-3.587 0-2.275 1.3-3.55 1.3-1.275 3.62-1.275 2.275 0 3.5 1.345 1.215 1.337 1.292 3.922zm1.414 4.145v-1.04h1.3v-7.075h-1.3V19.06h4.352v1.3q.55-.82 1.26-1.18.706-.375 1.784-.375 1.543 0 2.328.913.792.905.792 2.672v4.796h1.3v1.043h-5.475v-1.043h1.125v-4.87q0-1.162-.3-1.625-.293-.456-1.025-.456-.922 0-1.354.68-.43.673-.43 2.146v4.124h1.12v1.043h-5.475zm18.334 0H70.8v-1.04h1.3V15.844h-1.3V14.8h4.353v8.625l3.697-3.32h-1.095v-1.042h4.18v1.042H80.26l-2.375 2.12 3.875 4.956h1v1.042h-5.257V27.18h1.078l-2.543-3.265-.854.76v2.5h1.155v1.042zm7.75-11.756q0-.7.483-1.172.482-.482 1.18-.482.68 0 1.155.482.482.475.482 1.172 0 .68-.482 1.163-.475.475-1.155.475-.7 0-1.18-.475-.483-.475-.483-1.163zm3.338 10.713h1.3v1.042H83.06v-1.042h1.3v-7.075h-1.3V19.06h4.352v8.118zm2.368 1.043v-1.04h1.3v-7.075h-1.3V19.06h4.353v1.3q.55-.82 1.26-1.18.706-.375 1.784-.375 1.543 0 2.328.913.793.905.793 2.672v4.796h1.3v1.043H96.13v-1.043h1.125v-4.87q0-1.162-.3-1.625-.293-.456-1.025-.456-.922 0-1.354.68-.43.673-.43 2.146v4.124h1.12v1.043H89.8zm13.05-.265v-2.56h.975q.12 1.025.768 1.57.646.535 1.76.535.93 0 1.422-.32.5-.328.5-.93 0-.55-.32-.854-.3-.3-1.215-.525l-1.26-.32q-1.422-.354-2.06-1-.625-.663-.625-1.784 0-1.5 1.034-2.215 1.034-.733 3.188-.733.8 0 1.725.125.922.13 2.034.413v2.3h-.975q-.078-.94-.672-1.413-.587-.475-1.7-.475-.93 0-1.412.3-.475.292-.475.875 0 .465.275.733.275.267 1 .45l1.25.32q1.8.456 2.5 1.13.7.672.7 1.87 0 1.55-1.125 2.293-1.104.732-3.437.732-.854 0-1.8-.13-.956-.13-2.025-.375z" fill="#000" class="C"></path></g></symbol></svg>