<?xml version="1.0" encoding="utf-8"?>
<!-- Generator: Adobe Illustrator 19.0.0, SVG Export Plug-In . SVG Version: 6.00 Build 0)  -->
<svg version="1.1" id="Layer_1" xmlns="http://www.w3.org/2000/svg" xmlns:xlink="http://www.w3.org/1999/xlink" x="0px" y="0px"
	 viewBox="0 0 960 560" style="enable-background:new 0 0 960 560;" xml:space="preserve">
<style type="text/css">
	.st0{fill:#092E20;}
</style>
<g>
	<path class="st0" d="M481,93.6c103.8,0.4,187.4,83.3,187.2,187.5c-0.2,103.9-82.8,187.2-187.4,187.1
		c-105.5-0.1-187.1-84.4-187.1-187.4C293.6,176.9,377,93.8,481,93.6z M455.6,228.6c-6.2-0.4-12-1.2-17.8-1.1c-6,0.1-12,0.6-17.8,1.8
		c-20.6,4.5-36.4,15.6-45,35.3c-6.9,15.8-7.8,32.4-4.1,49.2c3.2,14.7,10.6,26.5,23.5,34.7c9.4,6,19.8,8.8,30.6,10.5
		c15.3,2.4,30.7,1.5,45.9-0.3c8.4-1,16.7-2.5,25-3.8c0-62.6,0-124.6,0-186.8c-1.3-0.1-2.2-0.2-3.2-0.2c-11.1,0-22.2,0.1-33.4-0.1
		c-3,0-3.8,0.9-3.8,3.8c0.1,17.6,0.1,35.2,0.1,52.9C455.6,226,455.6,227.5,455.6,228.6z M519.8,230.5c0,1.8,0,3.3,0,4.8
		c0,25.1,0.1,50.2-0.1,75.3c-0.1,11.5-0.2,23-1.5,34.4c-0.8,7.8-2.8,15.8-5.6,23.2c-4.2,11.2-13.2,18.2-23.4,23.8
		c-2.8,1.5-5.6,2.9-9.3,4.7c12.8,6.1,24.7,11.7,36.5,17.2c0.8,0.4,2.2,0.2,3.1-0.2c16.7-8,29.2-19.8,35.1-37.9
		c4.7-14.1,5.5-28.7,5.6-43.3c0.2-32.6,0.1-65.2,0.1-97.8c0-1.3,0-2.7,0-4.2C546.8,230.5,533.6,230.5,519.8,230.5z M560.2,168.7
		c-13.7,0-27,0-40.2,0c0,13.9,0,27.4,0,40.9c13.6,0,26.8,0,40.2,0C560.2,195.8,560.2,182.4,560.2,168.7z"/>
	<path class="st0" d="M455.6,294.2c0,9.7-0.1,19.5,0,29.2c0,2.4-0.6,3.4-3.1,3.4c-5.6,0-11.3,0.8-16.8,0.1
		c-15.4-2.1-23.8-11.1-25-26.6c-0.4-5.9-0.1-12.1,1.3-17.8c3.5-14.2,13.1-21.6,27.7-22.2c4.1-0.2,8.2,0.6,12.3,1
		c2.7,0.2,3.7,1.5,3.6,4.4C455.5,275.2,455.6,284.7,455.6,294.2z"/>
</g>
</svg>
